<svg width="103" height="41" viewBox="0 0 103 41" fill="none" xmlns="http://www.w3.org/2000/svg">
<path d="M15.3152 32.3535V11.3633H0.561519V32.3535H4.09867V14.7143H11.5919V32.3535H15.3152ZM20.5651 11.4098H25.1261V2.33426H35.3187V5.6387H28.6633V11.4098H35.3187V14.7143H28.6633V32.3535H25.1261V14.7143H20.5651V11.4098ZM53.414 32.3535H44.8504V14.7143H40.5686V11.3633H44.8504V5.17329H48.3876V11.3633H53.414V14.7143H48.3876V29.0025H53.414V32.3535ZM58.6639 11.4098V32.3535H62.2011V11.3633L58.6639 11.4098ZM58.6639 0.891471V7.08149H62.2011V0.891471H58.6639ZM67.4044 11.4098H71.9655V2.33426H82.1581V5.6387H75.5026V11.4098H82.1581V14.7143H75.5026V32.3535H71.9655V14.7143H67.4044V11.4098ZM102.162 11.3633V40.9171H87.4079V37.6127H98.4383V32.3535H87.501V11.3633H90.9451V28.9094H98.4383V11.3633H102.162Z" fill="white"/>
<path d="M15.3152 32.3535V33.1478H16.1095V32.3535H15.3152ZM15.3152 11.3633H16.1095V10.569H15.3152V11.3633ZM0.561519 11.3633V10.569H-0.232789V11.3633H0.561519ZM0.561519 32.3535H-0.232789V33.1478H0.561519V32.3535ZM4.09867 32.3535V33.1478H4.89298V32.3535H4.09867ZM4.09867 14.7143V13.92H3.30436V14.7143H4.09867ZM11.5919 14.7143H12.3862V13.92H11.5919V14.7143ZM11.5919 32.3535H10.7975V33.1478H11.5919V32.3535ZM16.1095 32.3535V11.3633H14.5209V32.3535H16.1095ZM15.3152 10.569H0.561519V12.1576H15.3152V10.569ZM-0.232789 11.3633V32.3535H1.35583V11.3633H-0.232789ZM0.561519 33.1478H4.09867V31.5592H0.561519V33.1478ZM4.89298 32.3535V14.7143H3.30436V32.3535H4.89298ZM4.09867 15.5086H11.5919V13.92H4.09867V15.5086ZM10.7975 14.7143V32.3535H12.3862V14.7143H10.7975ZM11.5919 33.1478H15.3152V31.5592H11.5919V33.1478ZM20.5651 11.4098V10.6155H19.7707V11.4098H20.5651ZM25.1261 11.4098V12.2042H25.9204V11.4098H25.1261ZM25.1261 2.33426V1.53995H24.3318V2.33426H25.1261ZM35.3187 2.33426H36.113V1.53995H35.3187V2.33426ZM35.3187 5.6387V6.43301H36.113V5.6387H35.3187ZM28.6633 5.6387V4.84439H27.869V5.6387H28.6633ZM28.6633 11.4098H27.869V12.2042H28.6633V11.4098ZM35.3187 11.4098H36.113V10.6155H35.3187V11.4098ZM35.3187 14.7143V15.5086H36.113V14.7143H35.3187ZM28.6633 14.7143V13.92H27.869V14.7143H28.6633ZM28.6633 32.3535V33.1478H29.4576V32.3535H28.6633ZM25.1261 32.3535H24.3318V33.1478H25.1261V32.3535ZM25.1261 14.7143H25.9204V13.92H25.1261V14.7143ZM20.5651 14.7143H19.7707V15.5086H20.5651V14.7143ZM20.5651 12.2042H25.1261V10.6155H20.5651V12.2042ZM25.9204 11.4098V2.33426H24.3318V11.4098H25.9204ZM25.1261 3.12857H35.3187V1.53995H25.1261V3.12857ZM34.5244 2.33426V5.6387H36.113V2.33426H34.5244ZM35.3187 4.84439H28.6633V6.43301H35.3187V4.84439ZM27.869 5.6387V11.4098H29.4576V5.6387H27.869ZM28.6633 12.2042H35.3187V10.6155H28.6633V12.2042ZM34.5244 11.4098V14.7143H36.113V11.4098H34.5244ZM35.3187 13.92H28.6633V15.5086H35.3187V13.92ZM27.869 14.7143V32.3535H29.4576V14.7143H27.869ZM28.6633 31.5592H25.1261V33.1478H28.6633V31.5592ZM25.9204 32.3535V14.7143H24.3318V32.3535H25.9204ZM25.1261 13.92H20.5651V15.5086H25.1261V13.92ZM21.3594 14.7143V11.4098H19.7707V14.7143H21.3594ZM53.414 32.3535V33.1478H54.2083V32.3535H53.414ZM44.8504 32.3535H44.0561V33.1478H44.8504V32.3535ZM44.8504 14.7143H45.6447V13.92H44.8504V14.7143ZM40.5686 14.7143H39.7743V15.5086H40.5686V14.7143ZM40.5686 11.3633V10.569H39.7743V11.3633H40.5686ZM44.8504 11.3633V12.1576H45.6447V11.3633H44.8504ZM44.8504 5.17329V4.37898H44.0561V5.17329H44.8504ZM48.3876 5.17329H49.1819V4.37898H48.3876V5.17329ZM48.3876 11.3633H47.5932V12.1576H48.3876V11.3633ZM53.414 11.3633H54.2083V10.569H53.414V11.3633ZM53.414 14.7143V15.5086H54.2083V14.7143H53.414ZM48.3876 14.7143V13.92H47.5932V14.7143H48.3876ZM48.3876 29.0025H47.5932V29.7968H48.3876V29.0025ZM53.414 29.0025H54.2083V28.2082H53.414V29.0025ZM53.414 31.5592H44.8504V33.1478H53.414V31.5592ZM45.6447 32.3535V14.7143H44.0561V32.3535H45.6447ZM44.8504 13.92H40.5686V15.5086H44.8504V13.92ZM41.3629 14.7143V11.3633H39.7743V14.7143H41.3629ZM40.5686 12.1576H44.8504V10.569H40.5686V12.1576ZM45.6447 11.3633V5.17329H44.0561V11.3633H45.6447ZM44.8504 5.9676H48.3876V4.37898H44.8504V5.9676ZM47.5932 5.17329V11.3633H49.1819V5.17329H47.5932ZM48.3876 12.1576H53.414V10.569H48.3876V12.1576ZM52.6197 11.3633V14.7143H54.2083V11.3633H52.6197ZM53.414 13.92H48.3876V15.5086H53.414V13.92ZM47.5932 14.7143V29.0025H49.1819V14.7143H47.5932ZM48.3876 29.7968H53.414V28.2082H48.3876V29.7968ZM52.6197 29.0025V32.3535H54.2083V29.0025H52.6197ZM58.6639 11.4098L58.6535 10.6156L57.8696 10.6259V11.4098H58.6639ZM58.6639 32.3535H57.8696V33.1478H58.6639V32.3535ZM62.2011 32.3535V33.1478H62.9954V32.3535H62.2011ZM62.2011 11.3633H62.9954V10.5585L62.1906 10.5691L62.2011 11.3633ZM58.6639 0.891471V0.0971631H57.8696V0.891471H58.6639ZM58.6639 7.08149H57.8696V7.8758H58.6639V7.08149ZM62.2011 7.08149V7.8758H62.9954V7.08149H62.2011ZM62.2011 0.891471H62.9954V0.0971631H62.2011V0.891471ZM57.8696 11.4098V32.3535H59.4582V11.4098H57.8696ZM58.6639 33.1478H62.2011V31.5592H58.6639V33.1478ZM62.9954 32.3535V11.3633H61.4068V32.3535H62.9954ZM62.1906 10.5691L58.6535 10.6156L58.6744 12.2041L62.2115 12.1575L62.1906 10.5691ZM57.8696 0.891471V7.08149H59.4582V0.891471H57.8696ZM58.6639 7.8758H62.2011V6.28718H58.6639V7.8758ZM62.9954 7.08149V0.891471H61.4068V7.08149H62.9954ZM62.2011 0.0971631H58.6639V1.68578H62.2011V0.0971631ZM67.4044 11.4098V10.6155H66.6101V11.4098H67.4044ZM71.9655 11.4098V12.2042H72.7598V11.4098H71.9655ZM71.9655 2.33426V1.53995H71.1712V2.33426H71.9655ZM82.1581 2.33426H82.9524V1.53995H82.1581V2.33426ZM82.1581 5.6387V6.43301H82.9524V5.6387H82.1581ZM75.5026 5.6387V4.84439H74.7083V5.6387H75.5026ZM75.5026 11.4098H74.7083V12.2042H75.5026V11.4098ZM82.1581 11.4098H82.9524V10.6155H82.1581V11.4098ZM82.1581 14.7143V15.5086H82.9524V14.7143H82.1581ZM75.5026 14.7143V13.92H74.7083V14.7143H75.5026ZM75.5026 32.3535V33.1478H76.2969V32.3535H75.5026ZM71.9655 32.3535H71.1712V33.1478H71.9655V32.3535ZM71.9655 14.7143H72.7598V13.92H71.9655V14.7143ZM67.4044 14.7143H66.6101V15.5086H67.4044V14.7143ZM67.4044 12.2042H71.9655V10.6155H67.4044V12.2042ZM72.7598 11.4098V2.33426H71.1712V11.4098H72.7598ZM71.9655 3.12857H82.1581V1.53995H71.9655V3.12857ZM81.3637 2.33426V5.6387H82.9524V2.33426H81.3637ZM82.1581 4.84439H75.5026V6.43301H82.1581V4.84439ZM74.7083 5.6387V11.4098H76.2969V5.6387H74.7083ZM75.5026 12.2042H82.1581V10.6155H75.5026V12.2042ZM81.3637 11.4098V14.7143H82.9524V11.4098H81.3637ZM82.1581 13.92H75.5026V15.5086H82.1581V13.92ZM74.7083 14.7143V32.3535H76.2969V14.7143H74.7083ZM75.5026 31.5592H71.9655V33.1478H75.5026V31.5592ZM72.7598 32.3535V14.7143H71.1712V32.3535H72.7598ZM71.9655 13.92H67.4044V15.5086H71.9655V13.92ZM68.1987 14.7143V11.4098H66.6101V14.7143H68.1987ZM102.162 11.3633H102.956V10.569H102.162V11.3633ZM102.162 40.9171V41.7115H102.956V40.9171H102.162ZM87.4079 40.9171H86.6136V41.7115H87.4079V40.9171ZM87.4079 37.6127V36.8184H86.6136V37.6127H87.4079ZM98.4383 37.6127V38.407H99.2326V37.6127H98.4383ZM98.4383 32.3535H99.2326V31.5592H98.4383V32.3535ZM87.501 32.3535H86.7067V33.1478H87.501V32.3535ZM87.501 11.3633V10.569H86.7067V11.3633H87.501ZM90.9451 11.3633H91.7394V10.569H90.9451V11.3633ZM90.9451 28.9094H90.1508V29.7038H90.9451V28.9094ZM98.4383 28.9094V29.7038H99.2326V28.9094H98.4383ZM98.4383 11.3633V10.569H97.644V11.3633H98.4383ZM101.367 11.3633V40.9171H102.956V11.3633H101.367ZM102.162 40.1228H87.4079V41.7115H102.162V40.1228ZM88.2022 40.9171V37.6127H86.6136V40.9171H88.2022ZM87.4079 38.407H98.4383V36.8184H87.4079V38.407ZM99.2326 37.6127V32.3535H97.644V37.6127H99.2326ZM98.4383 31.5592H87.501V33.1478H98.4383V31.5592ZM88.2953 32.3535V11.3633H86.7067V32.3535H88.2953ZM87.501 12.1576H90.9451V10.569H87.501V12.1576ZM90.1508 11.3633V28.9094H91.7394V11.3633H90.1508ZM90.9451 29.7038H98.4383V28.1151H90.9451V29.7038ZM99.2326 28.9094V11.3633H97.644V28.9094H99.2326ZM98.4383 12.1576H102.162V10.569H98.4383V12.1576Z" fill="white"/>
</svg>
